<svg width="70" height="71" viewBox="0 0 70 71" fill="none" xmlns="http://www.w3.org/2000/svg">
<circle cx="35" cy="35.5" r="35" transform="rotate(-180 35 35.5)" fill="#E6EAEE"/>
<path d="M33.3261 34.1264L36.1522 30.8815C36.4964 30.4863 36.8902 30.3982 37.3337 30.617C37.7779 30.835 38 31.2248 38 31.7864L38 38.2136C38 38.7752 37.7779 39.165 37.3337 39.383C36.8902 39.6018 36.4964 39.5137 36.1522 39.1185L33.3261 35.8736C33.2174 35.7488 33.1359 35.6136 33.0815 35.468C33.0272 35.3224 33 35.1664 33 35C33 34.8336 33.0272 34.6776 33.0815 34.532C33.1359 34.3864 33.2174 34.2512 33.3261 34.1264Z" fill="#1A1A1A"/>
</svg>
