<svg width="70" height="71" viewBox="0 0 70 71" fill="none" xmlns="http://www.w3.org/2000/svg">
<circle cx="35" cy="35.5" r="35" fill="#CCD3DC"/>
<path d="M36.6739 36.8736L33.8478 40.1185C33.5036 40.5137 33.1098 40.6018 32.6663 40.383C32.2221 40.165 32 39.7752 32 39.2136L32 32.7864C32 32.2248 32.2221 31.835 32.6663 31.617C33.1098 31.3982 33.5036 31.4863 33.8478 31.8815L36.6739 35.1264C36.7826 35.2512 36.8641 35.3864 36.9185 35.532C36.9728 35.6776 37 35.8336 37 36C37 36.1664 36.9728 36.3224 36.9185 36.468C36.8641 36.6136 36.7826 36.7488 36.6739 36.8736Z" fill="black"/>
</svg>
