<svg width="37" height="36" viewBox="0 0 37 36" fill="none" xmlns="http://www.w3.org/2000/svg">
<path d="M19.8605 27.8862C16.8411 31.1853 11.7189 31.4119 8.41984 28.3925C5.12079 25.373 4.89412 20.2509 7.91356 16.9518C10.8242 13.7717 15.8998 13.0803 22.404 14.0605C22.7539 16.1294 22.8614 18.7029 22.5308 21.1809C22.1739 23.8565 21.3251 26.286 19.8605 27.8862Z" stroke="white" stroke-width="2.08984"/>
<path d="M17.3746 7.84821C20.5369 4.68587 25.6641 4.68587 28.8264 7.84821C31.9888 11.0106 31.9888 16.1377 28.8264 19.3001C25.7781 22.3484 20.6769 22.8147 14.2223 21.548C13.9642 19.4656 13.9707 16.8899 14.4104 14.4289C14.8853 11.7717 15.8407 9.38207 17.3746 7.84821Z" stroke="white" stroke-width="2.08984"/>
<path d="M13.1958 9.83987L12.0464 16.3184" stroke="#002550" stroke-width="2.08984"/>
<path d="M24.7944 19.6621L24.063 24.3643" stroke="#002550" stroke-width="2.08984"/>
</svg>
