<svg width="57" height="24" viewBox="0 0 57 24" fill="none" xmlns="http://www.w3.org/2000/svg">
<g filter="url(#filter0_d_4_10807)">
<rect width="56" height="24" fill="#D9D9D9" fill-opacity="0.01" shape-rendering="crispEdges"/>
</g>
<path d="M34.399 5H14V8.99819H34.399V5Z" fill="#F0953E"/>
<path d="M34.401 13.0049H14.002V17.0006H34.401V13.0049Z" fill="#3B8916"/>
<path d="M34.401 8.99805H14.002V13.0046H34.401V8.99805Z" fill="white"/>
<path d="M23.7854 9C22.8 9 22 9.80369 22 10.7968C22 11.7899 22.8 12.5961 23.7854 12.5961C24.7709 12.5961 25.5709 11.7899 25.5709 10.7968C25.5699 9.80369 24.7709 9 23.7854 9ZM23.7845 9.17459L23.7393 10.0792L23.7879 10.5935L23.833 10.0792L23.7879 9.17459C23.8355 9.17459 23.8806 9.17706 23.9258 9.18151C23.9258 9.18398 23.9233 9.18398 23.9233 9.18646C23.9233 9.22949 23.9567 9.26559 23.997 9.26559C24.0347 9.26559 24.0657 9.23443 24.0691 9.19882C24.1143 9.20822 24.157 9.21564 24.2006 9.22998L23.9253 10.091L23.8375 10.6005L24.0156 10.1123L24.2055 9.22949C24.2482 9.24383 24.2909 9.2557 24.3336 9.27251C24.3312 9.27944 24.3277 9.28933 24.3277 9.29873C24.3277 9.33928 24.3611 9.37291 24.4023 9.37291C24.4308 9.37291 24.4593 9.35363 24.4701 9.32741C24.5103 9.3467 24.5496 9.36797 24.5898 9.3922L24.102 10.1484L23.886 10.6222L24.1839 10.1989L24.5932 9.39517C24.6301 9.41644 24.6678 9.44067 24.7061 9.46441C24.6953 9.47875 24.6894 9.4931 24.6894 9.51239C24.6894 9.55294 24.7228 9.58657 24.764 9.58657C24.7876 9.58657 24.8092 9.57718 24.8224 9.55541C24.8583 9.58657 24.8911 9.61773 24.9221 9.64889L24.2576 10.2543L23.9287 10.6539L24.3238 10.3235L24.9255 9.65136C24.9564 9.68499 24.9873 9.71615 25.0158 9.75176C24.9981 9.76611 24.9898 9.78787 24.9898 9.80913C24.9898 9.84969 25.0232 9.88332 25.0624 9.88332C25.0801 9.88332 25.0933 9.87837 25.1066 9.86898C25.1341 9.90706 25.1576 9.94564 25.1792 9.98372L24.3817 10.3952L23.9616 10.6969L24.4283 10.4818L25.1822 9.98669C25.2072 10.0297 25.2273 10.0752 25.2475 10.1133C25.2224 10.1252 25.2023 10.1539 25.2023 10.185C25.2023 10.2256 25.2357 10.2592 25.2749 10.2592C25.2867 10.2592 25.2951 10.2567 25.3034 10.2523C25.3176 10.2953 25.3309 10.3359 25.3412 10.3789L24.4642 10.5653L23.9832 10.7449L24.4887 10.6588L25.3432 10.3838C25.3539 10.4219 25.3647 10.4699 25.3731 10.5129C25.3363 10.5179 25.3088 10.5466 25.3088 10.5871C25.3088 10.6277 25.3432 10.6613 25.3834 10.6613H25.3908C25.3957 10.7043 25.3957 10.7523 25.3957 10.7953L24.5005 10.7523L23.9876 10.7978L24.5005 10.8482L25.3957 10.8003C25.3957 10.8482 25.3957 10.8937 25.3908 10.9368H25.3834C25.3432 10.9368 25.3088 10.9729 25.3088 11.011C25.3088 11.049 25.3363 11.0777 25.3716 11.0852C25.3633 11.1307 25.3539 11.1737 25.3432 11.2167L25.0379 11.1188L24.4882 10.9392L23.9827 10.8532L24.4637 11.0327L25.3407 11.2217C25.3299 11.2647 25.3171 11.3102 25.3005 11.3483C25.298 11.3483 25.2936 11.3458 25.2911 11.3458H25.2744C25.2327 11.3458 25.1998 11.377 25.1998 11.42C25.1998 11.4319 25.2023 11.4393 25.2067 11.4487C25.2102 11.4605 25.2175 11.4699 25.2268 11.4774C25.2268 11.4774 25.2303 11.4798 25.2327 11.4798C25.2327 11.4798 25.2376 11.4848 25.2396 11.4848C25.2396 11.4848 25.243 11.4872 25.2445 11.4897C25.2254 11.5303 25.2043 11.5708 25.1817 11.6094L24.4288 11.1188H24.4279L23.9611 10.9036H23.9636L24.208 11.0758L24.3812 11.2004L25.1787 11.6119C25.1552 11.6524 25.1311 11.693 25.1051 11.7291C25.0933 11.7222 25.0776 11.7172 25.0624 11.7172C25.0207 11.7172 24.9888 11.7484 24.9888 11.7889C24.9888 11.8127 24.9981 11.8344 25.0163 11.8463C24.9868 11.8799 24.9569 11.9131 24.926 11.9442L24.3243 11.2746L23.9302 10.9442L24.2581 11.3438L24.9226 11.9492C24.8916 11.9828 24.8607 12.009 24.8264 12.0377C24.8121 12.0258 24.7969 12.0209 24.7802 12.0209C24.74 12.0209 24.7066 12.057 24.7066 12.0951C24.7066 12.1094 24.7091 12.1188 24.7125 12.1287C24.6732 12.1525 24.633 12.1792 24.5937 12.2054L24.1844 11.4017L23.8865 10.9758L24.1015 11.4472L24.5893 12.2078C24.5501 12.2296 24.5108 12.2509 24.4706 12.2702C24.4598 12.2415 24.4337 12.2247 24.4043 12.2247C24.3626 12.2247 24.3297 12.2608 24.3297 12.2989C24.3297 12.3082 24.3322 12.3181 24.3346 12.3275C24.2919 12.3419 24.2502 12.3562 24.2065 12.3656L24.0166 11.4803L23.8384 10.9996V10.9971L23.9263 11.5065L24.2016 12.3681C24.1579 12.38 24.1138 12.3918 24.0701 12.3968C24.0642 12.3631 24.0333 12.3345 23.9979 12.3345C23.9552 12.3345 23.9243 12.3681 23.9243 12.4062V12.4156C23.8792 12.4205 23.834 12.4225 23.7889 12.4225L23.834 11.5204L23.7864 11.0035L23.7403 11.5204L23.7854 12.4225C23.7378 12.4225 23.6942 12.42 23.6475 12.4156V12.4062C23.6475 12.3681 23.6142 12.3345 23.5729 12.3345C23.5371 12.3345 23.5067 12.3631 23.5003 12.3968C23.4566 12.3899 23.4139 12.38 23.3722 12.3681L23.6475 11.5065L23.7329 10.9991L23.5548 11.4798L23.3673 12.3651C23.3246 12.3557 23.2819 12.3414 23.2377 12.327C23.2412 12.3176 23.2436 12.3078 23.2436 12.2984C23.2436 12.2603 23.2102 12.2242 23.171 12.2242C23.1401 12.2242 23.1141 12.2435 23.1008 12.2697C23.0615 12.2504 23.0213 12.2291 22.982 12.2074L23.4699 11.4467L23.6834 10.9754L23.3864 11.3987L22.9781 12.2049C22.9389 12.1787 22.8996 12.1544 22.8628 12.1282C22.8711 12.1188 22.877 12.1045 22.877 12.0877C22.877 12.0446 22.8436 12.011 22.8044 12.011C22.7793 12.011 22.7592 12.0229 22.7474 12.0397C22.7116 12.0085 22.6787 11.9823 22.6478 11.9487L23.3148 11.3433L23.6426 10.9437L23.2475 11.2741L22.6459 11.9437C22.6125 11.9126 22.583 11.877 22.5531 11.8458C22.5698 11.8315 22.5816 11.8097 22.5816 11.786C22.5816 11.7454 22.5482 11.7143 22.508 11.7143C22.4913 11.7143 22.4761 11.7192 22.4638 11.7261C22.4378 11.69 22.4137 11.6519 22.3911 11.6114L23.1911 11.1974L23.6078 10.9031L23.141 11.1183L22.3887 11.6089C22.3661 11.5708 22.3484 11.5323 22.3283 11.4892C22.3568 11.4798 22.3759 11.4531 22.3759 11.4225C22.3759 11.3794 22.344 11.3458 22.3013 11.3458C22.2905 11.3458 22.2802 11.3483 22.2704 11.3527C22.2562 11.3122 22.242 11.2667 22.2287 11.2212L23.1072 11.0322L23.5901 10.8527L23.0822 10.9388L22.2272 11.2162C22.2154 11.1732 22.2071 11.1302 22.1978 11.0822C22.2346 11.0772 22.2621 11.0486 22.2621 11.0105C22.2621 10.9699 22.2287 10.9363 22.1885 10.9363H22.1801C22.1777 10.8933 22.1742 10.8478 22.1742 10.7998L23.0704 10.8478L23.5823 10.7973L23.0704 10.7518L22.1742 10.7948C22.1742 10.7518 22.1777 10.7038 22.1801 10.6608H22.1934C22.2336 10.6608 22.267 10.6296 22.267 10.5866C22.267 10.5461 22.2375 10.5174 22.1983 10.5124C22.2076 10.4694 22.2159 10.4214 22.2277 10.3833L23.0826 10.6583L23.5906 10.7444L23.1077 10.5649L22.2292 10.3759C22.2424 10.3304 22.2567 10.2874 22.2709 10.2468C22.2778 10.2493 22.29 10.2518 22.2984 10.2518C22.3401 10.2518 22.372 10.2182 22.372 10.1776C22.372 10.1464 22.3529 10.1202 22.3278 10.1108C22.347 10.0678 22.3671 10.0272 22.3897 9.98619L23.142 10.4813L23.6107 10.6964L23.1916 10.3947L22.3916 9.98323C22.4142 9.94514 22.4392 9.90657 22.4653 9.86601C22.4761 9.87788 22.4937 9.88283 22.5089 9.88283C22.5482 9.88283 22.5825 9.84919 22.5825 9.80864C22.5825 9.78688 22.5708 9.76561 22.5551 9.74879C22.5825 9.71516 22.612 9.684 22.6439 9.65087L23.2456 10.323L23.6421 10.6534L23.3143 10.2538L22.6473 9.64839C22.6807 9.61724 22.7126 9.58608 22.747 9.55739C22.7587 9.57421 22.7803 9.58608 22.8039 9.58608C22.8456 9.58608 22.8785 9.55245 22.8785 9.50942C22.8785 9.4926 22.8716 9.47826 22.8633 9.46392C22.9011 9.44215 22.9379 9.41594 22.9771 9.39468L23.3855 10.1984L23.6824 10.6193L23.4689 10.1479L22.9811 9.39171C23.0203 9.36797 23.0596 9.34621 23.0984 9.32692C23.1101 9.3556 23.1361 9.37489 23.1671 9.37489C23.2088 9.37489 23.2407 9.34126 23.2407 9.30318C23.2407 9.29131 23.2382 9.27944 23.2358 9.27202C23.2775 9.2552 23.3226 9.24333 23.3653 9.22899L23.5553 10.1118L23.7334 10.6L23.6465 10.0905L23.3712 9.22949C23.4139 9.21514 23.4566 9.20772 23.5018 9.19833C23.5067 9.23443 23.5376 9.26312 23.5744 9.26312C23.6161 9.26312 23.649 9.22949 23.649 9.18646V9.17953C23.6927 9.17459 23.7378 9.17459 23.783 9.17459" fill="#16007E"/>
<path d="M23.788 10.5283C23.9352 10.5283 24.054 10.6505 24.054 10.7964C24.054 10.9423 23.9352 11.0669 23.788 11.0669C23.6408 11.0669 23.5195 10.9448 23.5195 10.7964C23.5195 10.648 23.6383 10.5283 23.788 10.5283Z" fill="white"/>
<path d="M23.7882 10.5908C23.901 10.5908 23.9933 10.6818 23.9933 10.7966C23.9933 10.9113 23.9006 11.0073 23.7882 11.0073C23.6758 11.0073 23.5791 10.9138 23.5791 10.7966C23.5791 10.6794 23.6728 10.5908 23.7882 10.5908Z" fill="#16007E"/>
<path d="M46.3333 14L42.8692 11L49.7974 11L46.3333 14Z" fill="#01244A"/>
<defs>
<filter id="filter0_d_4_10807" x="0" y="0" width="57" height="24" filterUnits="userSpaceOnUse" color-interpolation-filters="sRGB">
<feFlood flood-opacity="0" result="BackgroundImageFix"/>
<feColorMatrix in="SourceAlpha" type="matrix" values="0 0 0 0 0 0 0 0 0 0 0 0 0 0 0 0 0 0 127 0" result="hardAlpha"/>
<feOffset dx="1"/>
<feComposite in2="hardAlpha" operator="out"/>
<feColorMatrix type="matrix" values="0 0 0 0 0 0 0 0 0 0 0 0 0 0 0 0 0 0 0.25 0"/>
<feBlend mode="normal" in2="BackgroundImageFix" result="effect1_dropShadow_4_10807"/>
<feBlend mode="normal" in="SourceGraphic" in2="effect1_dropShadow_4_10807" result="shape"/>
</filter>
</defs>
</svg>
