<svg width="68" height="65" viewBox="0 0 68 65" fill="none" xmlns="http://www.w3.org/2000/svg">
<path fill-rule="evenodd" clip-rule="evenodd" d="M27.9861 11.111C30.4131 10.5322 33.3974 10.5085 36.8913 10.9834C37.163 12.9445 37.2245 15.2752 36.9322 17.5288C36.5724 20.3038 35.7117 22.697 34.3243 24.2129C31.4639 27.3382 26.6115 27.5529 23.4863 24.6925C20.361 21.8321 20.1462 16.9798 23.0066 13.8545C23.777 13.0128 24.719 12.3444 25.8254 11.8405L26.2351 9.53097C24.3902 10.1497 22.8006 11.1174 21.5313 12.5042C17.9251 16.4443 18.1959 22.5617 22.1359 26.1679C26.076 29.774 32.1935 29.5033 35.7996 25.5632C39.3652 21.6674 39.5934 14.1134 38.6496 9.38264C38.6302 9.28494 38.5515 9.21144 38.4532 9.19537C34.7333 8.58761 31.3034 8.4465 28.3627 8.98791L27.9861 11.111Z" fill="#002550"/>
<path fill-rule="evenodd" clip-rule="evenodd" d="M32.9868 4.25317C35.9826 1.25741 40.8397 1.25741 43.8355 4.25317C46.8312 7.24893 46.8312 12.106 43.8355 15.1018C43.066 15.8712 42.1475 16.4764 41.086 16.925L40.7347 19.1837C42.4734 18.6388 43.9956 17.7701 45.2497 16.516C49.0265 12.7392 49.0265 6.61577 45.2497 2.83896C41.4729 -0.937855 35.3494 -0.937855 31.5726 2.83896C27.8383 6.57332 27.2764 14.1099 28.0101 18.8777C28.0252 18.9762 28.1005 19.0531 28.198 19.0735C32.04 19.877 35.5902 20.1611 38.6346 19.6722L38.9603 17.5782C36.4692 18.0995 33.4118 18.0042 29.8375 17.3563C29.6528 15.385 29.6943 13.054 30.0859 10.8155C30.5681 8.05913 31.5338 5.70623 32.9868 4.25317Z" fill="#002550"/>
<path d="M9.03529 55.9297H0.358831V54.8927C1.1668 54.8927 1.75441 54.829 2.12167 54.7016C2.48892 54.5561 2.71846 54.2923 2.81027 53.9102C2.92045 53.51 2.97554 52.9187 2.97554 52.1364V41.8479C2.97554 41.1202 2.92045 40.5562 2.81027 40.1559C2.71846 39.7557 2.48892 39.4737 2.12167 39.3099C1.75441 39.128 1.1668 39.037 0.358831 39.037V38H9.09038V39.037C8.26405 39.037 7.65807 39.128 7.27245 39.3099C6.90519 39.4737 6.67566 39.7648 6.58384 40.1832C6.51039 40.5835 6.47367 41.1384 6.47367 41.8479V52.1364C6.47367 52.9005 6.51957 53.4827 6.61139 53.8829C6.72156 54.2832 6.9511 54.5561 7.29999 54.7016C7.66725 54.829 8.24568 54.8927 9.03529 54.8927V55.9297Z" fill="#002550"/>
<path d="M28.3361 56.1207H25.9948L15.1424 41.8479H14.2334L13.5173 40.6199C13.1867 40.165 12.8837 39.8284 12.6083 39.6101C12.3512 39.3918 12.0758 39.2463 11.782 39.1735C11.5065 39.0825 11.1668 39.037 10.7628 39.037V38H16.6573L26.5182 50.9629H26.6559V42.5575C26.6559 41.7933 26.61 41.1566 26.5182 40.6472C26.4264 40.1195 26.1968 39.7193 25.8296 39.4464C25.4807 39.1735 24.8839 39.037 24.0392 39.037V38H30.8151V39.037C30.0622 39.037 29.5021 39.1735 29.1349 39.4464C28.786 39.7193 28.5656 40.1286 28.4738 40.6744C28.382 41.2021 28.3361 41.8479 28.3361 42.6121V56.1207ZM17.5112 55.9297H10.7628V54.8927C11.4973 54.8927 12.0482 54.7107 12.4155 54.3469C12.7827 53.9648 13.0306 53.4372 13.1592 52.764C13.2877 52.0909 13.352 51.2995 13.352 50.3898V39.9103H15.0047V51.6451C15.0047 52.5548 15.0689 53.2462 15.1975 53.7192C15.326 54.174 15.5739 54.4833 15.9412 54.6471C16.3084 54.8108 16.8318 54.8927 17.5112 54.8927V55.9297Z" fill="#002550"/>
<path d="M41.2376 55.9297H32.451V54.8927C33.1487 54.8927 33.6721 54.8381 34.021 54.7289C34.3882 54.6198 34.6361 54.3833 34.7647 54.0194C34.8932 53.6555 34.9575 53.0915 34.9575 52.3274V41.1384C34.9575 40.5926 34.9024 40.1741 34.7922 39.883C34.682 39.5737 34.4433 39.3554 34.0761 39.2281C33.7272 39.1007 33.1855 39.037 32.451 39.037V38H40.6041C41.9262 38 43.129 38.1365 44.2124 38.4094C45.3141 38.6823 46.1864 39.1553 46.8291 39.8284C47.4718 40.4834 47.7931 41.3931 47.7931 42.5575C47.7931 43.5581 47.5728 44.3768 47.1321 45.0136C46.7097 45.6322 46.1588 46.1143 45.4794 46.46C44.8183 46.8057 44.1022 47.0695 43.331 47.2514V47.3879C43.6248 47.5698 43.9461 47.87 44.295 48.2884C44.6623 48.7069 45.1397 49.3346 45.7273 50.1715C46.3149 50.9902 47.1045 52.1 48.0961 53.5009C48.5368 54.1013 48.9684 54.4833 49.3907 54.6471C49.8314 54.8108 50.3639 54.8927 50.9883 54.8927V55.9297H45.3692C44.7082 54.8199 44.1573 53.9011 43.7166 53.1734C43.2759 52.4457 42.8994 51.8453 42.5873 51.3722C42.2751 50.881 41.9905 50.4444 41.7334 50.0623C41.4947 49.662 41.2376 49.2527 40.9621 48.8342C40.7051 48.4158 40.4572 48.1611 40.2184 48.0701C39.9797 47.9609 39.6217 47.9064 39.1442 47.9064H38.5107V52.3547C38.5107 53.0824 38.575 53.6373 38.7035 54.0194C38.8321 54.3833 39.0891 54.6198 39.4748 54.7289C39.8604 54.8381 40.448 54.8927 41.2376 54.8927V55.9297ZM38.5107 46.6783L39.5574 46.7056C40.5123 46.651 41.3202 46.4964 41.9813 46.2417C42.6607 45.987 43.1749 45.5776 43.5238 45.0136C43.891 44.4496 44.0747 43.6764 44.0747 42.6939C44.0747 41.6387 43.7717 40.8018 43.1657 40.1832C42.5597 39.5464 41.5773 39.2281 40.2184 39.2281C39.9246 39.2281 39.6308 39.2372 39.337 39.2554C39.0616 39.2554 38.7861 39.2735 38.5107 39.3099V46.6783Z" fill="#002550"/>
<path d="M67.1327 55.9297H51.7354V54.8927C52.4148 54.8927 52.9382 54.8472 53.3054 54.7562C53.6911 54.6471 53.9573 54.4287 54.1042 54.1013C54.2695 53.7738 54.3521 53.2644 54.3521 52.573V41.5477C54.3521 40.8564 54.2878 40.3379 54.1593 39.9922C54.0491 39.6283 53.8012 39.3827 53.4156 39.2554C53.0484 39.128 52.4883 39.0643 51.7354 39.0643V38H66.8572L67.0225 42.7758H65.8105C65.682 41.9207 65.4892 41.2566 65.2321 40.7836C64.9934 40.3106 64.5986 39.9831 64.0477 39.8012C63.5152 39.6192 62.7164 39.5283 61.6514 39.5283H57.8502V46.0506H60.6047C61.4861 46.0506 62.138 45.996 62.5603 45.8869C63.001 45.7777 63.2857 45.5503 63.4142 45.2046C63.5611 44.8408 63.6345 44.3041 63.6345 43.5945H64.7639V49.8986H63.6345C63.6345 49.1344 63.5611 48.5795 63.4142 48.2339C63.2857 47.87 63.001 47.6426 62.5603 47.5516C62.138 47.4424 61.4861 47.3879 60.6047 47.3879H57.8502V54.4287H61.2106C62.1839 54.4287 62.9735 54.3833 63.5795 54.2923C64.1854 54.1831 64.6721 53.9921 65.0393 53.7192C65.4066 53.4463 65.7096 53.0642 65.9483 52.573C66.187 52.0818 66.4257 51.445 66.6644 50.6627H67.8213L67.1327 55.9297Z" fill="#002550"/>
<path d="M8.78643 63.9417V63.7035H9.19664V61.6731H8.78643V61.4349H9.97838V61.6731H9.59171V63.7035H9.97838V63.9417H8.78643Z" fill="#002550"/>
<path d="M10.4303 63.9417V63.7035H10.8354V61.6731H10.4303V61.4349H11.3381L12.5334 63.4986V61.6731H12.1232V61.4349H13.2395V61.6731H12.8545V63.9417H12.4057L11.1565 61.7897V63.7035H11.5415V63.9417H10.4303Z" fill="#002550"/>
<path d="M13.6662 63.9417V63.7035H14.0714V61.6731H13.6662V61.4349H14.574L15.7693 63.4986V61.6731H15.3591V61.4349H16.4754V61.6731H16.0904V63.9417H15.6416L14.3925 61.7897V63.7035H14.7775V63.9417H13.6662Z" fill="#002550"/>
<path d="M18.1832 63.9867C18.0307 63.9867 17.8884 63.9628 17.7562 63.9151C17.6239 63.8662 17.5101 63.799 17.4149 63.7135C17.323 63.6302 17.244 63.5331 17.1778 63.422C17.1128 63.3099 17.0652 63.1916 17.0349 63.0672C17.0035 62.944 16.9879 62.8168 16.9879 62.6858C16.9879 62.4148 17.0512 62.17 17.1778 61.9512C17.2451 61.8357 17.3252 61.7369 17.4182 61.6547C17.5124 61.5715 17.6233 61.5054 17.7511 61.4565C17.8856 61.4077 18.0296 61.3832 18.1832 61.3832C18.3356 61.3832 18.4779 61.4077 18.6102 61.4565C18.7436 61.5054 18.8573 61.5726 18.9515 61.6581C19.0434 61.7414 19.1218 61.8391 19.1868 61.9512C19.2518 62.0623 19.3 62.18 19.3314 62.3044C19.3617 62.4287 19.3768 62.5559 19.3768 62.6858C19.3768 62.9567 19.3135 63.2016 19.1868 63.4203C19.1196 63.5358 19.0394 63.6347 18.9464 63.7168C18.8534 63.799 18.743 63.864 18.6152 63.9117C18.483 63.9617 18.339 63.9867 18.1832 63.9867ZM18.1832 63.7535C18.3009 63.7535 18.409 63.7241 18.5076 63.6652C18.6074 63.6052 18.6892 63.5236 18.7531 63.4203C18.8159 63.3204 18.8635 63.2077 18.896 63.0822C18.9296 62.9556 18.9464 62.8246 18.9464 62.6891C18.9464 62.5803 18.9358 62.4742 18.9145 62.371C18.8943 62.2677 18.8629 62.1717 18.8203 62.0828C18.7273 61.8874 18.6046 61.7519 18.4522 61.6764C18.3703 61.6364 18.2807 61.6164 18.1832 61.6164C18.0655 61.6164 17.9573 61.6464 17.8587 61.7064C17.7601 61.7652 17.6783 61.8463 17.6133 61.9496C17.5505 62.0506 17.5023 62.1644 17.4687 62.291C17.435 62.4165 17.4182 62.547 17.4182 62.6825C17.4182 62.9123 17.4608 63.1155 17.546 63.2921C17.5908 63.3876 17.643 63.4692 17.7024 63.5369C17.7629 63.6036 17.8335 63.6558 17.9142 63.6935C17.9971 63.7335 18.0868 63.7535 18.1832 63.7535Z" fill="#002550"/>
<path d="M20.9921 64C20.9327 64 20.8845 63.9822 20.8475 63.9467C20.8116 63.9112 20.7786 63.8506 20.7483 63.7651L19.9901 61.6731H19.6051V61.4349H20.8105V61.6731H20.4558L21.0677 63.4537L21.6612 61.6731H21.2157V61.4349H22.3555V61.6731H21.947L21.2224 63.7651C21.2011 63.8251 21.1804 63.8717 21.1602 63.9051C21.1411 63.9384 21.1182 63.9622 21.0913 63.9767C21.0655 63.9922 21.0324 64 20.9921 64Z" fill="#002550"/>
<path d="M22.0979 63.9417V63.7035H22.4006L23.2865 61.4349H23.685L24.5844 63.7035H24.8668V63.9417H23.7791V63.7035H24.154L23.9203 63.1022H22.9486L22.7284 63.7035H23.152V63.9417H22.0979ZM23.0276 62.8907H23.8363L23.421 61.7613L23.0276 62.8907Z" fill="#002550"/>
<path d="M25.4263 63.9417V63.7035H25.818V61.6731H25.1741V62.4476H24.8615V61.4349H27.1579V62.4476H26.8436V61.6731H26.2148V63.7035H26.6166V63.9417H25.4263Z" fill="#002550"/>
<path d="M27.6115 63.9417V63.7035H28.0217V61.6731H27.6115V61.4349H28.8035V61.6731H28.4168V63.7035H28.8035V63.9417H27.6115Z" fill="#002550"/>
<path d="M30.5364 63.9867C30.384 63.9867 30.2416 63.9628 30.1094 63.9151C29.9771 63.8662 29.8634 63.799 29.7681 63.7135C29.6762 63.6302 29.5972 63.5331 29.5311 63.422C29.4661 63.3099 29.4184 63.1916 29.3882 63.0672C29.3568 62.944 29.3411 62.8168 29.3411 62.6858C29.3411 62.4148 29.4044 62.17 29.5311 61.9512C29.5983 61.8357 29.6785 61.7369 29.7715 61.6547C29.8656 61.5715 29.9766 61.5054 30.1044 61.4565C30.2388 61.4077 30.3829 61.3832 30.5364 61.3832C30.6888 61.3832 30.8312 61.4077 30.9634 61.4565C31.0968 61.5054 31.2106 61.5726 31.3047 61.6581C31.3966 61.7414 31.4751 61.8391 31.5401 61.9512C31.6051 62.0623 31.6533 62.18 31.6847 62.3044C31.7149 62.4287 31.73 62.5559 31.73 62.6858C31.73 62.9567 31.6667 63.2016 31.5401 63.4203C31.4728 63.5358 31.3927 63.6347 31.2997 63.7168C31.2066 63.799 31.0962 63.864 30.9685 63.9117C30.8362 63.9617 30.6922 63.9867 30.5364 63.9867ZM30.5364 63.7535C30.6541 63.7535 30.7622 63.7241 30.8609 63.6652C30.9606 63.6052 31.0424 63.5236 31.1063 63.4203C31.1691 63.3204 31.2167 63.2077 31.2492 63.0822C31.2829 62.9556 31.2997 62.8246 31.2997 62.6891C31.2997 62.5803 31.289 62.4742 31.2677 62.371C31.2475 62.2677 31.2162 62.1717 31.1736 62.0828C31.0806 61.8874 30.9578 61.7519 30.8054 61.6764C30.7236 61.6364 30.6339 61.6164 30.5364 61.6164C30.4187 61.6164 30.3106 61.6464 30.2119 61.7064C30.1133 61.7652 30.0315 61.8463 29.9665 61.9496C29.9037 62.0506 29.8555 62.1644 29.8219 62.291C29.7883 62.4165 29.7715 62.547 29.7715 62.6825C29.7715 62.9123 29.8141 63.1155 29.8992 63.2921C29.9441 63.3876 29.9962 63.4692 30.0556 63.5369C30.1161 63.6036 30.1867 63.6558 30.2674 63.6935C30.3504 63.7335 30.44 63.7535 30.5364 63.7535Z" fill="#002550"/>
<path d="M32.2727 63.9417V63.7035H32.6779V61.6731H32.2727V61.4349H33.1806L34.3759 63.4986V61.6731H33.9657V61.4349H35.082V61.6731H34.697V63.9417H34.2481L32.999 61.7897V63.7035H33.384V63.9417H32.2727Z" fill="#002550"/>
<path d="M36.6549 63.9417V63.7035H37.0651V61.6731H36.6549V61.4349H37.8468V61.6731H37.4601V63.7035H37.8468V63.9417H36.6549Z" fill="#002550"/>
<path d="M38.2987 63.9417V63.7035H38.7039V61.6731H38.2987V61.4349H39.2065L40.4019 63.4986V61.6731H39.9917V61.4349H41.1079V61.6731H40.723V63.9417H40.2741L39.025 61.7897V63.7035H39.41V63.9417H38.2987Z" fill="#002550"/>
<path d="M44.7857 63.9967C44.7173 63.9967 44.6551 63.9845 44.5991 63.96C44.5442 63.9367 44.4976 63.9039 44.4595 63.8617C44.4237 63.8229 44.3912 63.7696 44.362 63.7018C44.3329 63.6341 44.3082 63.5603 44.2881 63.4803C44.2656 63.3893 44.2466 63.2988 44.2309 63.2088C44.2208 63.1455 44.2034 63.0872 44.1788 63.0339C44.1541 62.9806 44.1278 62.9395 44.0998 62.9107C44.0729 62.884 44.0443 62.8612 44.014 62.8424C43.9838 62.8235 43.9585 62.8113 43.9384 62.8057C43.9204 62.8013 43.9036 62.7991 43.8879 62.7991H43.4912V63.7035H43.8728V63.9417H42.6859V63.7035H43.0944V61.6731H42.6859V61.4349H43.7316C43.8056 61.4349 43.8672 61.436 43.9165 61.4382C43.9669 61.4404 44.0303 61.4449 44.1065 61.4515C44.1995 61.4604 44.2757 61.4726 44.3351 61.4882C44.3956 61.5037 44.4629 61.5282 44.5369 61.5615C44.6075 61.5937 44.6635 61.6325 44.705 61.6781C44.7476 61.7225 44.7834 61.7808 44.8126 61.853C44.8406 61.9229 44.8546 62.004 44.8546 62.0961C44.8546 62.2905 44.7935 62.4354 44.6714 62.5309C44.612 62.5764 44.5475 62.6136 44.478 62.6425C44.4085 62.6702 44.325 62.6941 44.2275 62.7141C44.2925 62.7274 44.3469 62.7458 44.3906 62.7691C44.4343 62.7924 44.4713 62.8229 44.5016 62.8607C44.5296 62.8973 44.552 62.9362 44.5688 62.9773C44.5867 63.0184 44.6052 63.0728 44.6243 63.1405C44.6389 63.1949 44.6596 63.2849 44.6865 63.4104C44.6932 63.4481 44.7033 63.487 44.7168 63.527C44.7302 63.5669 44.7437 63.598 44.7571 63.6202C44.7717 63.6447 44.7902 63.6646 44.8126 63.6802C44.835 63.6957 44.8602 63.7035 44.8882 63.7035C45.0037 63.7035 45.0614 63.5986 45.0614 63.3887V63.1572H45.2884V63.402C45.2884 63.7985 45.1208 63.9967 44.7857 63.9967ZM43.7013 62.5492C43.8818 62.5492 44.028 62.5364 44.1401 62.5109C44.2522 62.4842 44.3396 62.4398 44.4024 62.3776C44.4674 62.3143 44.4999 62.2305 44.4999 62.1261C44.4999 62.0362 44.4836 61.9618 44.4511 61.9029C44.4186 61.8441 44.3671 61.7974 44.2965 61.763C44.227 61.7308 44.1446 61.708 44.0493 61.6947C43.9552 61.6803 43.8347 61.6731 43.6879 61.6731H43.4912V62.5492H43.7013Z" fill="#002550"/>
<path d="M45.6932 63.9417V63.7035H46.1067V61.6731H45.6932V61.4349H47.9796V62.3993H47.6753V61.6731H46.5018V62.5742H47.1289V62.1644H47.3525V63.1988H47.1289V62.7641H46.5018V63.7035H47.6753V62.9906H47.9796V63.9417H45.6932Z" fill="#002550"/>
<path d="M48.4903 63.9417V63.7035H48.7929L49.6789 61.4349H50.0773L50.9768 63.7035H51.2592V63.9417H50.1715V63.7035H50.5464L50.3127 63.1022H49.341L49.1207 63.7035H49.5444V63.9417H48.4903ZM49.42 62.8907H50.2286L49.8134 61.7613L49.42 62.8907Z" fill="#002550"/>
<path d="M51.6707 63.9417V63.7035H52.0793V61.6731H51.6707V61.4349H52.861V61.6731H52.476V63.7035H53.4259V62.9007H53.7403V63.9417H51.6707Z" fill="#002550"/>
<path d="M54.5166 63.9417V63.7035H54.9083V61.6731H54.2645V62.4476H53.9518V61.4349H56.2482V62.4476H55.9339V61.6731H55.3051V63.7035H55.7069V63.9417H54.5166Z" fill="#002550"/>
<path d="M57.3508 63.9417V63.7035H57.7593V62.9506L57.033 61.6731H56.6901V61.4349H57.8148V61.6731H57.4298L57.998 62.7074L58.583 61.6731H58.2082V61.4349H59.2269V61.6731H58.9092L58.156 62.959V63.7035H58.541V63.9417H57.3508Z" fill="#002550"/>
<path d="M0 62.9518L5.59494 62.9518M62.4051 62.9518L68 62.9518M9.03529 55.9297H0.358831V54.8927C1.1668 54.8927 1.75441 54.829 2.12167 54.7016C2.48892 54.5561 2.71846 54.2923 2.81027 53.9102C2.92045 53.51 2.97554 52.9187 2.97554 52.1364V41.8479C2.97554 41.1202 2.92045 40.5562 2.81027 40.1559C2.71846 39.7557 2.48892 39.4737 2.12167 39.3099C1.75441 39.128 1.1668 39.037 0.358831 39.037V38H9.09038V39.037C8.26405 39.037 7.65807 39.128 7.27245 39.3099C6.90519 39.4737 6.67566 39.7648 6.58384 40.1832C6.51039 40.5835 6.47367 41.1384 6.47367 41.8479V52.1364C6.47367 52.9005 6.51957 53.4827 6.61139 53.8829C6.72156 54.2832 6.9511 54.5561 7.29999 54.7016C7.66725 54.829 8.24568 54.8927 9.03529 54.8927V55.9297ZM28.3361 56.1207H25.9948L15.1424 41.8479H14.2334L13.5173 40.6199C13.1867 40.165 12.8837 39.8284 12.6083 39.6101C12.3512 39.3918 12.0758 39.2463 11.782 39.1735C11.5065 39.0825 11.1668 39.037 10.7628 39.037V38H16.6573L26.5182 50.9629H26.6559V42.5575C26.6559 41.7933 26.61 41.1566 26.5182 40.6472C26.4264 40.1195 26.1968 39.7193 25.8296 39.4464C25.4807 39.1735 24.8839 39.037 24.0392 39.037V38H30.8151V39.037C30.0622 39.037 29.5021 39.1735 29.1349 39.4464C28.786 39.7193 28.5656 40.1286 28.4738 40.6744C28.382 41.2021 28.3361 41.8479 28.3361 42.6121V56.1207ZM17.5112 55.9297H10.7628V54.8927C11.4973 54.8927 12.0482 54.7107 12.4155 54.3469C12.7827 53.9648 13.0306 53.4372 13.1592 52.764C13.2877 52.0909 13.352 51.2995 13.352 50.3898V39.9103H15.0047V51.6451C15.0047 52.5548 15.0689 53.2462 15.1975 53.7192C15.326 54.174 15.5739 54.4833 15.9412 54.6471C16.3084 54.8108 16.8318 54.8927 17.5112 54.8927V55.9297ZM41.2376 55.9297H32.451V54.8927C33.1487 54.8927 33.6721 54.8381 34.021 54.7289C34.3882 54.6198 34.6361 54.3833 34.7647 54.0194C34.8932 53.6555 34.9575 53.0915 34.9575 52.3274V41.1384C34.9575 40.5926 34.9024 40.1741 34.7922 39.883C34.682 39.5737 34.4433 39.3554 34.0761 39.2281C33.7272 39.1007 33.1855 39.037 32.451 39.037V38H40.6041C41.9262 38 43.129 38.1365 44.2124 38.4094C45.3141 38.6823 46.1864 39.1553 46.8291 39.8284C47.4718 40.4834 47.7931 41.3931 47.7931 42.5575C47.7931 43.5581 47.5728 44.3768 47.1321 45.0136C46.7097 45.6322 46.1588 46.1143 45.4794 46.46C44.8183 46.8057 44.1022 47.0695 43.331 47.2514V47.3879C43.6248 47.5698 43.9461 47.87 44.295 48.2884C44.6623 48.7069 45.1397 49.3346 45.7273 50.1715C46.3149 50.9902 47.1045 52.1 48.0961 53.5009C48.5368 54.1013 48.9684 54.4833 49.3907 54.6471C49.8314 54.8108 50.3639 54.8927 50.9883 54.8927V55.9297H45.3692C44.7082 54.8199 44.1573 53.9011 43.7166 53.1734C43.2759 52.4457 42.8994 51.8453 42.5873 51.3722C42.2751 50.881 41.9905 50.4444 41.7334 50.0623C41.4947 49.662 41.2376 49.2527 40.9621 48.8342C40.7051 48.4158 40.4572 48.1611 40.2184 48.0701C39.9797 47.9609 39.6217 47.9064 39.1442 47.9064H38.5107V52.3547C38.5107 53.0824 38.575 53.6373 38.7035 54.0194C38.8321 54.3833 39.0891 54.6198 39.4748 54.7289C39.8604 54.8381 40.448 54.8927 41.2376 54.8927V55.9297ZM38.5107 46.6783L39.5574 46.7056C40.5123 46.651 41.3202 46.4964 41.9813 46.2417C42.6607 45.987 43.1749 45.5776 43.5238 45.0136C43.891 44.4496 44.0747 43.6764 44.0747 42.6939C44.0747 41.6387 43.7717 40.8018 43.1657 40.1832C42.5597 39.5464 41.5773 39.2281 40.2184 39.2281C39.9246 39.2281 39.6308 39.2372 39.337 39.2554C39.0616 39.2554 38.7861 39.2735 38.5107 39.3099V46.6783ZM67.1327 55.9297H51.7354V54.8927C52.4148 54.8927 52.9382 54.8472 53.3054 54.7562C53.6911 54.6471 53.9573 54.4287 54.1042 54.1013C54.2695 53.7738 54.3521 53.2644 54.3521 52.573V41.5477C54.3521 40.8564 54.2878 40.3379 54.1593 39.9922C54.0491 39.6283 53.8012 39.3827 53.4156 39.2554C53.0484 39.128 52.4883 39.0643 51.7354 39.0643V38H66.8572L67.0225 42.7758H65.8105C65.682 41.9207 65.4892 41.2566 65.2321 40.7836C64.9934 40.3106 64.5986 39.9831 64.0477 39.8012C63.5152 39.6192 62.7164 39.5283 61.6514 39.5283H57.8502V46.0506H60.6047C61.4861 46.0506 62.138 45.996 62.5603 45.8869C63.001 45.7777 63.2857 45.5503 63.4142 45.2046C63.5611 44.8408 63.6345 44.3041 63.6345 43.5945H64.7639V49.8986H63.6345C63.6345 49.1344 63.5611 48.5795 63.4142 48.2339C63.2857 47.87 63.001 47.6426 62.5603 47.5516C62.138 47.4424 61.4861 47.3879 60.6047 47.3879H57.8502V54.4287H61.2106C62.1839 54.4287 62.9735 54.3833 63.5795 54.2923C64.1854 54.1831 64.6721 53.9921 65.0393 53.7192C65.4066 53.4463 65.7096 53.0642 65.9483 52.573C66.187 52.0818 66.4257 51.445 66.6644 50.6627H67.8213L67.1327 55.9297ZM8.78643 63.9417V63.7035H9.19664V61.6731H8.78643V61.4349H9.97838V61.6731H9.59171V63.7035H9.97838V63.9417H8.78643ZM10.4303 63.9417V63.7035H10.8354V61.6731H10.4303V61.4349H11.3381L12.5334 63.4986V61.6731H12.1232V61.4349H13.2395V61.6731H12.8545V63.9417H12.4057L11.1565 61.7897V63.7035H11.5415V63.9417H10.4303ZM13.6662 63.9417V63.7035H14.0714V61.6731H13.6662V61.4349H14.574L15.7693 63.4986V61.6731H15.3591V61.4349H16.4754V61.6731H16.0904V63.9417H15.6416L14.3925 61.7897V63.7035H14.7775V63.9417H13.6662ZM18.1832 63.9867C18.0307 63.9867 17.8884 63.9628 17.7562 63.9151C17.6239 63.8662 17.5101 63.799 17.4149 63.7135C17.323 63.6302 17.244 63.5331 17.1778 63.422C17.1128 63.3099 17.0652 63.1916 17.0349 63.0672C17.0035 62.944 16.9879 62.8168 16.9879 62.6858C16.9879 62.4148 17.0512 62.17 17.1778 61.9512C17.2451 61.8357 17.3252 61.7369 17.4182 61.6547C17.5124 61.5715 17.6233 61.5054 17.7511 61.4565C17.8856 61.4077 18.0296 61.3832 18.1832 61.3832C18.3356 61.3832 18.4779 61.4077 18.6102 61.4565C18.7436 61.5054 18.8573 61.5726 18.9515 61.6581C19.0434 61.7414 19.1218 61.8391 19.1868 61.9512C19.2518 62.0623 19.3 62.18 19.3314 62.3044C19.3617 62.4287 19.3768 62.5559 19.3768 62.6858C19.3768 62.9567 19.3135 63.2016 19.1868 63.4203C19.1196 63.5358 19.0394 63.6347 18.9464 63.7168C18.8534 63.799 18.743 63.864 18.6152 63.9117C18.483 63.9617 18.339 63.9867 18.1832 63.9867ZM18.1832 63.7535C18.3009 63.7535 18.409 63.7241 18.5076 63.6652C18.6074 63.6052 18.6892 63.5236 18.7531 63.4203C18.8159 63.3204 18.8635 63.2077 18.896 63.0822C18.9296 62.9556 18.9464 62.8246 18.9464 62.6891C18.9464 62.5803 18.9358 62.4742 18.9145 62.371C18.8943 62.2677 18.8629 62.1717 18.8203 62.0828C18.7273 61.8874 18.6046 61.7519 18.4522 61.6764C18.3703 61.6364 18.2807 61.6164 18.1832 61.6164C18.0655 61.6164 17.9573 61.6464 17.8587 61.7064C17.7601 61.7652 17.6783 61.8463 17.6133 61.9496C17.5505 62.0506 17.5023 62.1644 17.4687 62.291C17.435 62.4165 17.4182 62.547 17.4182 62.6825C17.4182 62.9123 17.4608 63.1155 17.546 63.2921C17.5908 63.3876 17.643 63.4692 17.7024 63.5369C17.7629 63.6036 17.8335 63.6558 17.9142 63.6935C17.9971 63.7335 18.0868 63.7535 18.1832 63.7535ZM20.9921 64C20.9327 64 20.8845 63.9822 20.8475 63.9467C20.8116 63.9112 20.7786 63.8506 20.7483 63.7651L19.9901 61.6731H19.6051V61.4349H20.8105V61.6731H20.4558L21.0677 63.4537L21.6612 61.6731H21.2157V61.4349H22.3555V61.6731H21.947L21.2224 63.7651C21.2011 63.8251 21.1804 63.8717 21.1602 63.9051C21.1411 63.9384 21.1182 63.9622 21.0913 63.9767C21.0655 63.9922 21.0324 64 20.9921 64ZM22.0979 63.9417V63.7035H22.4006L23.2865 61.4349H23.685L24.5844 63.7035H24.8668V63.9417H23.7791V63.7035H24.154L23.9203 63.1022H22.9486L22.7284 63.7035H23.152V63.9417H22.0979ZM23.0276 62.8907H23.8363L23.421 61.7613L23.0276 62.8907ZM25.4263 63.9417V63.7035H25.818V61.6731H25.1741V62.4476H24.8615V61.4349H27.1579V62.4476H26.8436V61.6731H26.2148V63.7035H26.6166V63.9417H25.4263ZM27.6115 63.9417V63.7035H28.0217V61.6731H27.6115V61.4349H28.8035V61.6731H28.4168V63.7035H28.8035V63.9417H27.6115ZM30.5364 63.9867C30.384 63.9867 30.2416 63.9628 30.1094 63.9151C29.9771 63.8662 29.8634 63.799 29.7681 63.7135C29.6762 63.6302 29.5972 63.5331 29.5311 63.422C29.4661 63.3099 29.4184 63.1916 29.3882 63.0672C29.3568 62.944 29.3411 62.8168 29.3411 62.6858C29.3411 62.4148 29.4044 62.17 29.5311 61.9512C29.5983 61.8357 29.6785 61.7369 29.7715 61.6547C29.8656 61.5715 29.9766 61.5054 30.1044 61.4565C30.2388 61.4077 30.3829 61.3832 30.5364 61.3832C30.6888 61.3832 30.8312 61.4077 30.9634 61.4565C31.0968 61.5054 31.2106 61.5726 31.3047 61.6581C31.3966 61.7414 31.4751 61.8391 31.5401 61.9512C31.6051 62.0623 31.6533 62.18 31.6847 62.3044C31.7149 62.4287 31.73 62.5559 31.73 62.6858C31.73 62.9567 31.6667 63.2016 31.5401 63.4203C31.4728 63.5358 31.3927 63.6347 31.2997 63.7168C31.2066 63.799 31.0962 63.864 30.9685 63.9117C30.8362 63.9617 30.6922 63.9867 30.5364 63.9867ZM30.5364 63.7535C30.6541 63.7535 30.7622 63.7241 30.8609 63.6652C30.9606 63.6052 31.0424 63.5236 31.1063 63.4203C31.1691 63.3204 31.2167 63.2077 31.2492 63.0822C31.2829 62.9556 31.2997 62.8246 31.2997 62.6891C31.2997 62.5803 31.289 62.4742 31.2677 62.371C31.2475 62.2677 31.2162 62.1717 31.1736 62.0828C31.0806 61.8874 30.9578 61.7519 30.8054 61.6764C30.7236 61.6364 30.6339 61.6164 30.5364 61.6164C30.4187 61.6164 30.3106 61.6464 30.2119 61.7064C30.1133 61.7652 30.0315 61.8463 29.9665 61.9496C29.9037 62.0506 29.8555 62.1644 29.8219 62.291C29.7883 62.4165 29.7715 62.547 29.7715 62.6825C29.7715 62.9123 29.8141 63.1155 29.8992 63.2921C29.9441 63.3876 29.9962 63.4692 30.0556 63.5369C30.1161 63.6036 30.1867 63.6558 30.2674 63.6935C30.3504 63.7335 30.44 63.7535 30.5364 63.7535ZM32.2727 63.9417V63.7035H32.6779V61.6731H32.2727V61.4349H33.1806L34.3759 63.4986V61.6731H33.9657V61.4349H35.082V61.6731H34.697V63.9417H34.2481L32.999 61.7897V63.7035H33.384V63.9417H32.2727ZM36.6549 63.9417V63.7035H37.0651V61.6731H36.6549V61.4349H37.8468V61.6731H37.4601V63.7035H37.8468V63.9417H36.6549ZM38.2987 63.9417V63.7035H38.7039V61.6731H38.2987V61.4349H39.2065L40.4019 63.4986V61.6731H39.9917V61.4349H41.1079V61.6731H40.723V63.9417H40.2741L39.025 61.7897V63.7035H39.41V63.9417H38.2987ZM44.7857 63.9967C44.7173 63.9967 44.6551 63.9845 44.5991 63.96C44.5442 63.9367 44.4976 63.9039 44.4595 63.8617C44.4237 63.8229 44.3912 63.7696 44.362 63.7018C44.3329 63.6341 44.3082 63.5603 44.2881 63.4803C44.2656 63.3893 44.2466 63.2988 44.2309 63.2088C44.2208 63.1455 44.2034 63.0872 44.1788 63.0339C44.1541 62.9806 44.1278 62.9395 44.0998 62.9107C44.0729 62.884 44.0443 62.8612 44.014 62.8424C43.9838 62.8235 43.9585 62.8113 43.9384 62.8057C43.9204 62.8013 43.9036 62.7991 43.8879 62.7991H43.4912V63.7035H43.8728V63.9417H42.6859V63.7035H43.0944V61.6731H42.6859V61.4349H43.7316C43.8056 61.4349 43.8672 61.436 43.9165 61.4382C43.9669 61.4404 44.0303 61.4449 44.1065 61.4515C44.1995 61.4604 44.2757 61.4726 44.3351 61.4882C44.3956 61.5037 44.4629 61.5282 44.5369 61.5615C44.6075 61.5937 44.6635 61.6325 44.705 61.6781C44.7476 61.7225 44.7834 61.7808 44.8126 61.853C44.8406 61.9229 44.8546 62.004 44.8546 62.0961C44.8546 62.2905 44.7935 62.4354 44.6714 62.5309C44.612 62.5764 44.5475 62.6136 44.478 62.6425C44.4085 62.6702 44.325 62.6941 44.2275 62.7141C44.2925 62.7274 44.3469 62.7458 44.3906 62.7691C44.4343 62.7924 44.4713 62.8229 44.5016 62.8607C44.5296 62.8973 44.552 62.9362 44.5688 62.9773C44.5867 63.0184 44.6052 63.0728 44.6243 63.1405C44.6389 63.1949 44.6596 63.2849 44.6865 63.4104C44.6932 63.4481 44.7033 63.487 44.7168 63.527C44.7302 63.5669 44.7437 63.598 44.7571 63.6202C44.7717 63.6447 44.7902 63.6646 44.8126 63.6802C44.835 63.6957 44.8602 63.7035 44.8882 63.7035C45.0037 63.7035 45.0614 63.5986 45.0614 63.3887V63.1572H45.2884V63.402C45.2884 63.7985 45.1208 63.9967 44.7857 63.9967ZM43.7013 62.5492C43.8818 62.5492 44.028 62.5364 44.1401 62.5109C44.2522 62.4842 44.3396 62.4398 44.4024 62.3776C44.4674 62.3143 44.4999 62.2305 44.4999 62.1261C44.4999 62.0362 44.4836 61.9618 44.4511 61.9029C44.4186 61.8441 44.3671 61.7974 44.2965 61.763C44.227 61.7308 44.1446 61.708 44.0493 61.6947C43.9552 61.6803 43.8347 61.6731 43.6879 61.6731H43.4912V62.5492H43.7013ZM45.6932 63.9417V63.7035H46.1067V61.6731H45.6932V61.4349H47.9796V62.3993H47.6753V61.6731H46.5018V62.5742H47.1289V62.1644H47.3525V63.1988H47.1289V62.7641H46.5018V63.7035H47.6753V62.9906H47.9796V63.9417H45.6932ZM48.4903 63.9417V63.7035H48.7929L49.6789 61.4349H50.0773L50.9768 63.7035H51.2592V63.9417H50.1715V63.7035H50.5464L50.3127 63.1022H49.341L49.1207 63.7035H49.5444V63.9417H48.4903ZM49.42 62.8907H50.2286L49.8134 61.7613L49.42 62.8907ZM51.6707 63.9417V63.7035H52.0793V61.6731H51.6707V61.4349H52.861V61.6731H52.476V63.7035H53.4259V62.9007H53.7403V63.9417H51.6707ZM54.5166 63.9417V63.7035H54.9083V61.6731H54.2645V62.4476H53.9518V61.4349H56.2482V62.4476H55.9339V61.6731H55.3051V63.7035H55.7069V63.9417H54.5166ZM57.3508 63.9417V63.7035H57.7593V62.9506L57.033 61.6731H56.6901V61.4349H57.8148V61.6731H57.4298L57.998 62.7074L58.583 61.6731H58.2082V61.4349H59.2269V61.6731H58.9092L58.156 62.959V63.7035H58.541V63.9417H57.3508Z" stroke="#002550" stroke-width="0.120698"/>
</svg>
