<svg width="37" height="36" viewBox="0 0 37 36" fill="none" xmlns="http://www.w3.org/2000/svg">
<path d="M19.8605 28.0805C16.8411 31.3796 11.7189 31.6063 8.41984 28.5868C5.12079 25.5674 4.89412 20.4452 7.91356 17.1462C10.8242 13.966 15.8998 13.2747 22.404 14.2548C22.7539 16.3237 22.8614 18.8972 22.5308 21.3752C22.1739 24.0509 21.3251 26.4804 19.8605 28.0805Z" stroke="white" stroke-width="2.08984"/>
<path d="M17.3746 8.04242C20.5369 4.88008 25.6641 4.88008 28.8264 8.04242C31.9888 11.2048 31.9888 16.3319 28.8264 19.4943C25.7781 22.5426 20.6769 23.0089 14.2223 21.7422C13.9642 19.6598 13.9707 17.0841 14.4104 14.6231C14.8853 11.9659 15.8407 9.57629 17.3746 8.04242Z" stroke="white" stroke-width="2.08984"/>
<path d="M13.1958 10.0342L12.0464 16.5127" stroke="#002550" stroke-width="2.08984"/>
<path d="M24.7944 19.8564L24.063 24.5586" stroke="#002550" stroke-width="2.08984"/>
</svg>
