<svg width="21" height="20" viewBox="0 0 21 20" fill="none" xmlns="http://www.w3.org/2000/svg">
<g clip-path="url(#clip0_4_409)">
<path d="M18.0385 0.289062H1.96154C1.57391 0.289063 1.20217 0.443046 0.928075 0.717137C0.653983 0.991229 0.5 1.36298 0.5 1.7506V17.8275C0.5 18.2151 0.653983 18.5869 0.928075 18.861C1.20217 19.1351 1.57391 19.2891 1.96154 19.2891H18.0385C18.4261 19.2891 18.7978 19.1351 19.0719 18.861C19.346 18.5869 19.5 18.2151 19.5 17.8275V1.7506C19.5 1.36298 19.346 0.991229 19.0719 0.717137C18.7978 0.443046 18.4261 0.289063 18.0385 0.289062ZM18.0385 17.8275H1.96154V1.7506H18.0385V17.8275ZM7.07692 8.32752V14.1737C7.07692 14.3675 6.99993 14.5534 6.86289 14.6904C6.72584 14.8275 6.53997 14.9044 6.34615 14.9044C6.15234 14.9044 5.96647 14.8275 5.82942 14.6904C5.69238 14.5534 5.61538 14.3675 5.61538 14.1737V8.32752C5.61538 8.13371 5.69238 7.94784 5.82942 7.81079C5.96647 7.67375 6.15234 7.59675 6.34615 7.59675C6.53997 7.59675 6.72584 7.67375 6.86289 7.81079C6.99993 7.94784 7.07692 8.13371 7.07692 8.32752ZM15.1154 10.8852V14.1737C15.1154 14.3675 15.0384 14.5534 14.9013 14.6904C14.7643 14.8275 14.5784 14.9044 14.3846 14.9044C14.1908 14.9044 14.0049 14.8275 13.8679 14.6904C13.7308 14.5534 13.6538 14.3675 13.6538 14.1737V10.8852C13.6538 10.4007 13.4614 9.936 13.1188 9.59339C12.7761 9.25077 12.3115 9.05829 11.8269 9.05829C11.3424 9.05829 10.8777 9.25077 10.5351 9.59339C10.1925 9.936 10 10.4007 10 10.8852V14.1737C10 14.3675 9.92301 14.5534 9.78596 14.6904C9.64892 14.8275 9.46304 14.9044 9.26923 14.9044C9.07542 14.9044 8.88954 14.8275 8.7525 14.6904C8.61545 14.5534 8.53846 14.3675 8.53846 14.1737V8.32752C8.53937 8.14853 8.60594 7.97609 8.72555 7.84292C8.84516 7.70975 9.00949 7.62511 9.18736 7.60506C9.36523 7.585 9.54428 7.63093 9.69054 7.73413C9.83679 7.83733 9.94008 7.99062 9.98082 8.16493C10.4752 7.82957 11.0515 7.63521 11.648 7.60271C12.2445 7.57021 12.8386 7.7008 13.3664 7.98046C13.8943 8.26012 14.336 8.67829 14.6441 9.19005C14.9523 9.70182 15.1152 10.2878 15.1154 10.8852ZM7.44231 5.76983C7.44231 5.98663 7.37802 6.19856 7.25757 6.37882C7.13713 6.55908 6.96593 6.69958 6.76563 6.78255C6.56534 6.86551 6.34494 6.88722 6.1323 6.84492C5.91967 6.80263 5.72436 6.69823 5.57106 6.54493C5.41776 6.39163 5.31336 6.19631 5.27106 5.98368C5.22877 5.77105 5.25047 5.55065 5.33344 5.35035C5.4164 5.15006 5.5569 4.97886 5.73716 4.85841C5.91743 4.73797 6.12935 4.67368 6.34615 4.67368C6.63687 4.67368 6.91568 4.78916 7.12125 4.99473C7.32682 5.2003 7.44231 5.47911 7.44231 5.76983Z" fill="white"/>
</g>
<defs>
<clipPath id="clip0_4_409">
<rect width="20" height="20" fill="white" transform="translate(0.5)"/>
</clipPath>
</defs>
</svg>
