<svg width="21" height="22" viewBox="0 0 21 22" fill="none" xmlns="http://www.w3.org/2000/svg">
<path d="M18.2778 2.2H17.1667V1.1C17.1667 0.495 16.6667 0 16.0556 0C15.4444 0 14.9444 0.495 14.9444 1.1V2.2H6.05556V1.1C6.05556 0.495 5.55556 0 4.94444 0C4.33333 0 3.83333 0.495 3.83333 1.1V2.2H2.72222C1.48889 2.2 0.511111 3.19 0.511111 4.4L0.5 19.8C0.5 20.3835 0.734126 20.9431 1.15087 21.3556C1.56762 21.7682 2.13285 22 2.72222 22H18.2778C19.5 22 20.5 21.01 20.5 19.8V4.4C20.5 3.19 19.5 2.2 18.2778 2.2ZM18.2778 18.7C18.2778 19.305 17.7778 19.8 17.1667 19.8H3.83333C3.22222 19.8 2.72222 19.305 2.72222 18.7V7.7H18.2778V18.7ZM4.94444 9.9H7.16667V12.1H4.94444V9.9ZM9.38889 9.9H11.6111V12.1H9.38889V9.9ZM13.8333 9.9H16.0556V12.1H13.8333V9.9Z" fill="#1A1A1A"/>
</svg>
