<svg width="21" height="18" viewBox="0 0 21 18" fill="none" xmlns="http://www.w3.org/2000/svg">
<path d="M6.61787 17.8571H6.52925C4.74412 17.8415 2.9848 17.4291 1.37867 16.6498C1.08323 16.511 0.839975 16.2813 0.684511 15.9943C0.529047 15.7073 0.469541 15.378 0.514704 15.0548C0.563822 14.7293 0.71451 14.4277 0.945255 14.193C1.176 13.9582 1.475 13.8024 1.79958 13.7477C2.79493 13.615 3.75247 13.2794 4.61302 12.7619C3.11897 11.5938 1.96878 10.0433 1.28432 8.27462C0.599867 6.50596 0.406654 4.58508 0.725158 2.71553C0.768343 2.4194 0.895697 2.14192 1.09207 1.91609C1.28843 1.69027 1.54555 1.52562 1.83281 1.44173C2.11229 1.35396 2.41139 1.35021 2.69298 1.43095C2.97457 1.51168 3.22624 1.67335 3.41675 1.89587C4.06362 2.74409 4.87652 3.45163 5.80585 3.97534C6.73519 4.49904 7.76147 4.82792 8.82209 4.94191C8.87276 3.63693 9.43356 2.40397 10.3839 1.50819C10.8584 1.0538 11.4186 0.698399 12.0319 0.462687C12.6451 0.226975 13.2991 0.11567 13.9558 0.135258C14.6125 0.154845 15.2588 0.304934 15.8569 0.576777C16.455 0.848621 16.993 1.23678 17.4396 1.71864C17.556 1.82151 17.7005 1.88707 17.8546 1.90681C18.0086 1.92656 18.1651 1.8996 18.3036 1.82941C18.5677 1.70485 18.8618 1.65796 19.1515 1.69421C19.4413 1.73047 19.7147 1.84837 19.94 2.03415C20.1652 2.21994 20.333 2.46596 20.4238 2.74351C20.5145 3.02105 20.5245 3.31867 20.4524 3.60165C20.197 4.65405 19.7129 5.63729 19.0346 6.48155C18.8852 9.63254 17.496 12.5966 15.17 14.7276C12.844 16.8585 9.76987 17.9835 6.61787 17.8571V17.8571ZM6.61787 15.6418H6.70648C7.99431 15.6861 9.27813 15.4743 10.4835 15.0187C11.6889 14.5632 12.7918 13.8728 13.7284 12.9878C14.6649 12.1027 15.4165 11.0406 15.9395 9.86287C16.4625 8.68517 16.7465 7.41538 16.775 6.1271C16.7933 5.77404 16.9389 5.43956 17.1849 5.1856C17.455 4.8436 17.6854 4.472 17.8716 4.07794C17.4726 4.0787 17.0779 3.99523 16.7133 3.83299C16.3488 3.67075 16.0225 3.4334 15.756 3.13644C15.4997 2.88229 15.1952 2.68183 14.8605 2.5468C14.5258 2.41176 14.1674 2.34486 13.8065 2.35001C13.442 2.34058 13.0792 2.40324 12.739 2.5344C12.3987 2.66556 12.0877 2.86262 11.8238 3.11429C11.4678 3.45212 11.2068 3.87753 11.0668 4.34795C10.9268 4.81837 10.9129 5.3173 11.0263 5.7948L11.3143 7.05753L10.0184 7.14614C8.69039 7.25443 7.35475 7.07277 6.10393 6.61376C4.85312 6.15474 3.71702 5.42934 2.77431 4.48777C2.73388 5.94588 3.09864 7.38664 3.82802 8.64986C4.5574 9.91308 5.62283 10.9493 6.90586 11.6432L7.95813 12.2413L7.2603 13.2382C6.50565 14.2279 5.47165 14.9687 4.2918 15.3649C5.04867 15.5546 5.82653 15.6477 6.60679 15.6418H6.61787Z" fill="white"/>
</svg>
