<svg width="21" height="20" viewBox="0 0 21 20" fill="none" xmlns="http://www.w3.org/2000/svg">
<path d="M19.7 0H1.3C0.8575 0 0.5 0.3575 0.5 0.8V19.2C0.5 19.6425 0.8575 20 1.3 20H19.7C20.1425 20 20.5 19.6425 20.5 19.2V0.8C20.5 0.3575 20.1425 0 19.7 0ZM18.9 18.4H14.2975V12.255H16.8975L17.2875 9.2375H14.2975V7.31C14.2975 6.435 14.54 5.84 15.7925 5.84H17.39V3.14C17.1125 3.1025 16.165 3.02 15.06 3.02C12.755 3.02 11.1775 4.4275 11.1775 7.01V9.235H8.5725V12.2525H11.18V18.4H2.1V1.6H18.9V18.4Z" fill="white"/>
</svg>
