<svg width="21" height="20" viewBox="0 0 21 20" fill="none" xmlns="http://www.w3.org/2000/svg">
<path fill-rule="evenodd" clip-rule="evenodd" d="M6.37727 0.06C7.44364 0.0109091 7.78364 0 10.5 0C13.2164 0 13.5564 0.0118182 14.6218 0.06C15.6873 0.108182 16.4145 0.278182 17.0509 0.524545C17.7173 0.776364 18.3218 1.17 18.8218 1.67909C19.3309 2.17818 19.7236 2.78182 19.9745 3.44909C20.2218 4.08545 20.3909 4.81273 20.44 5.87636C20.4891 6.94455 20.5 7.28455 20.5 10C20.5 12.7164 20.4882 13.0564 20.44 14.1227C20.3918 15.1864 20.2218 15.9136 19.9745 16.55C19.7236 17.2174 19.3303 17.822 18.8218 18.3218C18.3218 18.8309 17.7173 19.2236 17.0509 19.4745C16.4145 19.7218 15.6873 19.8909 14.6236 19.94C13.5564 19.9891 13.2164 20 10.5 20C7.78364 20 7.44364 19.9882 6.37727 19.94C5.31364 19.8918 4.58636 19.7218 3.95 19.4745C3.28266 19.2236 2.67802 18.8302 2.17818 18.3218C1.66944 17.8224 1.27574 17.2181 1.02455 16.5509C0.778182 15.9145 0.609091 15.1873 0.56 14.1236C0.510909 13.0555 0.5 12.7155 0.5 10C0.5 7.28364 0.511818 6.94364 0.56 5.87818C0.608182 4.81273 0.778182 4.08545 1.02455 3.44909C1.27611 2.78189 1.67011 2.17756 2.17909 1.67818C2.67822 1.16955 3.28225 0.775858 3.94909 0.524545C4.58545 0.278182 5.31273 0.109091 6.37636 0.06H6.37727ZM14.5409 1.86C13.4864 1.81182 13.17 1.80182 10.5 1.80182C7.83 1.80182 7.51364 1.81182 6.45909 1.86C5.48364 1.90455 4.95455 2.06727 4.60182 2.20455C4.13545 2.38636 3.80182 2.60182 3.45182 2.95182C3.12004 3.27459 2.86471 3.66753 2.70455 4.10182C2.56727 4.45455 2.40455 4.98364 2.36 5.95909C2.31182 7.01364 2.30182 7.33 2.30182 10C2.30182 12.67 2.31182 12.9864 2.36 14.0409C2.40455 15.0164 2.56727 15.5455 2.70455 15.8982C2.86455 16.3318 3.12 16.7255 3.45182 17.0482C3.77455 17.38 4.16818 17.6355 4.60182 17.7955C4.95455 17.9327 5.48364 18.0955 6.45909 18.14C7.51364 18.1882 7.82909 18.1982 10.5 18.1982C13.1709 18.1982 13.4864 18.1882 14.5409 18.14C15.5164 18.0955 16.0455 17.9327 16.3982 17.7955C16.8645 17.6136 17.1982 17.3982 17.5482 17.0482C17.88 16.7255 18.1355 16.3318 18.2955 15.8982C18.4327 15.5455 18.5955 15.0164 18.64 14.0409C18.6882 12.9864 18.6982 12.67 18.6982 10C18.6982 7.33 18.6882 7.01364 18.64 5.95909C18.5955 4.98364 18.4327 4.45455 18.2955 4.10182C18.1136 3.63545 17.8982 3.30182 17.5482 2.95182C17.2254 2.62006 16.8325 2.36474 16.3982 2.20455C16.0455 2.06727 15.5164 1.90455 14.5409 1.86V1.86ZM9.22273 13.0827C9.93605 13.3797 10.7303 13.4197 11.4699 13.1961C12.2095 12.9725 12.8485 12.499 13.2778 11.8566C13.7071 11.2142 13.9001 10.4426 13.8237 9.67373C13.7473 8.90485 13.4064 8.18634 12.8591 7.64091C12.5102 7.29225 12.0884 7.02528 11.6239 6.85922C11.1595 6.69317 10.664 6.63215 10.1732 6.68056C9.68233 6.72897 9.20832 6.88562 8.78528 7.13921C8.36223 7.3928 8.00068 7.73704 7.72664 8.14714C7.4526 8.55723 7.2729 9.02299 7.20047 9.51087C7.12804 9.99876 7.16468 10.4966 7.30776 10.9687C7.45084 11.4407 7.6968 11.8751 8.02793 12.2407C8.35905 12.6062 8.76711 12.8938 9.22273 13.0827ZM6.86545 6.36545C7.34275 5.88816 7.90938 5.50955 8.533 5.25124C9.15661 4.99293 9.825 4.85998 10.5 4.85998C11.175 4.85998 11.8434 4.99293 12.467 5.25124C13.0906 5.50955 13.6573 5.88816 14.1345 6.36545C14.6118 6.84275 14.9905 7.40938 15.2488 8.033C15.5071 8.65661 15.64 9.325 15.64 10C15.64 10.675 15.5071 11.3434 15.2488 11.967C14.9905 12.5906 14.6118 13.1573 14.1345 13.6345C13.1706 14.5985 11.8632 15.14 10.5 15.14C9.13678 15.14 7.8294 14.5985 6.86545 13.6345C5.90151 12.6706 5.35998 11.3632 5.35998 10C5.35998 8.63678 5.90151 7.3294 6.86545 6.36545V6.36545ZM16.78 5.62545C16.8983 5.51388 16.993 5.37971 17.0585 5.23089C17.124 5.08206 17.1589 4.92161 17.1613 4.75903C17.1637 4.59645 17.1334 4.43504 17.0723 4.28437C17.0111 4.1337 16.9204 3.99683 16.8054 3.88185C16.6904 3.76688 16.5536 3.67614 16.4029 3.61502C16.2522 3.55389 16.0908 3.52361 15.9282 3.52598C15.7657 3.52835 15.6052 3.56332 15.4564 3.62881C15.3076 3.69431 15.1734 3.789 15.0618 3.90727C14.8448 4.1373 14.726 4.44284 14.7306 4.75903C14.7352 5.07522 14.8629 5.37716 15.0865 5.60077C15.3101 5.82437 15.6121 5.95203 15.9282 5.95664C16.2444 5.96125 16.55 5.84245 16.78 5.62545V5.62545Z" fill="white"/>
</svg>
