<svg width="20" height="19" viewBox="0 0 20 19" fill="none" xmlns="http://www.w3.org/2000/svg">
<path d="M6.11787 18.5682H6.02925C4.24412 18.5526 2.4848 18.1402 0.878672 17.3609C0.583233 17.2221 0.339975 16.9924 0.184511 16.7054C0.0290472 16.4183 -0.030459 16.0891 0.0147039 15.7658C0.0638221 15.4404 0.21451 15.1387 0.445255 14.904C0.676 14.6693 0.975005 14.5135 1.29958 14.4588C2.29493 14.326 3.25247 13.9905 4.11302 13.473C2.61897 12.3049 1.46878 10.7543 0.784322 8.98568C0.0998673 7.21702 -0.0933459 5.29614 0.225158 3.42659C0.268343 3.13046 0.395697 2.85298 0.592065 2.62715C0.788433 2.40133 1.04555 2.23668 1.33281 2.15279C1.61229 2.06502 1.91139 2.06127 2.19298 2.142C2.47457 2.22274 2.72624 2.38441 2.91675 2.60693C3.56362 3.45515 4.37652 4.16269 5.30585 4.68639C6.23519 5.2101 7.26147 5.53898 8.32209 5.65297C8.37276 4.34799 8.93356 3.11503 9.88388 2.21925C10.3584 1.76486 10.9186 1.40946 11.5319 1.17375C12.1451 0.938035 12.7991 0.82673 13.4558 0.846317C14.1125 0.865905 14.7588 1.01599 15.3569 1.28784C15.955 1.55968 16.493 1.94784 16.9396 2.4297C17.056 2.53257 17.2005 2.59812 17.3546 2.61787C17.5086 2.63762 17.6651 2.61066 17.8036 2.54047C18.0677 2.41591 18.3618 2.36902 18.6515 2.40527C18.9413 2.44153 19.2147 2.55943 19.44 2.74521C19.6652 2.931 19.833 3.17702 19.9238 3.45456C20.0145 3.73211 20.0245 4.02973 19.9524 4.31271C19.697 5.36511 19.2129 6.34835 18.5346 7.19261C18.3852 10.3436 16.996 13.3077 14.67 15.4386C12.344 17.5696 9.26987 18.6945 6.11787 18.5682V18.5682ZM6.11787 16.3529H6.20648C7.49431 16.3972 8.77813 16.1854 9.98349 15.7298C11.1889 15.2742 12.2918 14.5839 13.2284 13.6988C14.1649 12.8138 14.9165 11.7516 15.4395 10.5739C15.9625 9.39623 16.2465 8.12644 16.275 6.83816C16.2933 6.4851 16.4389 6.15062 16.6849 5.89666C16.955 5.55466 17.1854 5.18306 17.3716 4.789C16.9726 4.78976 16.5779 4.70629 16.2133 4.54405C15.8488 4.38181 15.5225 4.14446 15.256 3.8475C14.9997 3.59335 14.6952 3.39289 14.3605 3.25786C14.0258 3.12282 13.6674 3.05592 13.3065 3.06107C12.942 3.05164 12.5792 3.1143 12.239 3.24546C11.8987 3.37662 11.5877 3.57368 11.3238 3.82535C10.9678 4.16318 10.7068 4.58859 10.5668 5.05901C10.4268 5.52943 10.4129 6.02836 10.5263 6.50586L10.8143 7.76859L9.51836 7.8572C8.19039 7.96549 6.85475 7.78383 5.60393 7.32482C4.35312 6.8658 3.21702 6.1404 2.27431 5.19883C2.23388 6.65694 2.59864 8.0977 3.32802 9.36092C4.0574 10.6241 5.12283 11.6603 6.40586 12.3543L7.45813 12.9524L6.7603 13.9493C6.00565 14.939 4.97165 15.6798 3.7918 16.076C4.54867 16.2657 5.32653 16.3587 6.10679 16.3529H6.11787Z" fill="white"/>
</svg>
